<?xml version="1.0" standalone="no"?>
<!DOCTYPE svg PUBLIC "-//W3C//DTD SVG 20010904//EN"
 "http://www.w3.org/TR/2001/REC-SVG-20010904/DTD/svg10.dtd">
<svg version="1.0" xmlns="http://www.w3.org/2000/svg"
 width="128.000000pt" height="128.000000pt" viewBox="0 0 128.000000 128.000000"
 preserveAspectRatio="xMidYMid meet">
<metadata>
Created by potrace 1.14, written by Peter Selinger 2001-2017
</metadata>
<g transform="translate(0.000000,128.000000) scale(0.100000,-0.100000)"
fill="#000000" stroke="none">
<path d="M950 904 l0 -248 -29 46 c-118 186 -416 192 -552 11 -47 -63 -69
-121 -73 -198 -13 -212 115 -370 315 -391 128 -13 266 54 319 155 l19 36 1
-91 c0 -75 3 -93 16 -98 9 -3 19 -4 23 -1 4 2 7 233 7 512 l-1 508 -22 3 -23
3 0 -247z m-175 -131 c65 -31 110 -76 143 -143 23 -47 27 -67 27 -145 0 -76
-4 -98 -26 -145 -54 -113 -151 -174 -274 -174 -124 1 -220 62 -274 174 -22 47
-26 69 -26 145 0 78 4 97 28 147 32 66 92 122 157 149 66 27 181 24 245 -8z"/>
</g>
</svg>
