<svg xmlns="http://www.w3.org/2000/svg" version="1.1" xmlns:xlink="http://www.w3.org/1999/xlink" xmlns:svgjs="http://svgjs.dev/svgjs" viewBox="0 0 1000 247"><g transform="matrix(1,0,0,1,-0.6060178834572412,-0.5007371994930025)"><svg viewBox="0 0 396 98" data-background-color="#282634" preserveAspectRatio="xMidYMid meet" height="247" width="1000" xmlns="http://www.w3.org/2000/svg" xmlns:xlink="http://www.w3.org/1999/xlink"><g id="tight-bounds" transform="matrix(1,0,0,1,0.23998308184906136,0.19867705702426974)"><svg viewBox="0 0 395.52 97.60264988406757" height="97.60264988406757" width="395.52"><g><svg viewBox="0 0 395.52000000000004 97.60264988406759" height="97.60264988406757" width="395.52"><g><svg viewBox="0 0 395.52000000000004 97.60264988406759" height="97.60264988406759" width="395.52000000000004"><g id="textblocktransform"><svg viewBox="0 0 395.52000000000004 97.60264988406759" height="97.60264988406759" width="395.52000000000004" id="textblock"><g><svg viewBox="0 0 395.52000000000004 97.60264988406759" height="97.60264988406759" width="395.52000000000004"><g transform="matrix(1,0,0,1,0,0)"><svg width="395.52000000000004" viewBox="2.5999999046325684 -37.099998474121094 150.9399871826172 37.25" height="97.60264988406759" data-palette-color="#ff4057"><path d="M26.45-37.1L28.1-37.1 28.1 0 26.5 0 26.5-7.1Q25.05-3.7 22.08-1.78 19.1 0.15 15.3 0.15L15.3 0.15Q11.75 0.15 8.85-1.53 5.95-3.2 4.28-6.2 2.6-9.2 2.6-13L2.6-13Q2.6-16.8 4.28-19.8 5.95-22.8 8.85-24.48 11.75-26.15 15.3-26.15L15.3-26.15Q19.05-26.15 22.03-24.25 25-22.35 26.45-19L26.45-19 26.45-37.1ZM15.35-1.35Q18.5-1.35 21.03-2.83 23.55-4.3 25-6.95 26.45-9.6 26.45-13L26.45-13Q26.45-16.4 25-19.03 23.55-21.65 21.03-23.13 18.5-24.6 15.35-24.6L15.35-24.6Q12.2-24.6 9.68-23.13 7.15-21.65 5.7-19.03 4.25-16.4 4.25-13L4.25-13Q4.25-9.6 5.7-6.95 7.15-4.3 9.68-2.83 12.2-1.35 15.35-1.35L15.35-1.35ZM59.75-25.95L61.4-25.95 61.4 0 59.8 0 59.8-6.3Q58.6-3.25 55.95-1.55 53.3 0.15 49.65 0.15L49.65 0.15Q44.6 0.15 41.75-2.65 38.9-5.45 38.9-10.7L38.9-10.7 38.9-25.95 40.55-25.95 40.55-10.8Q40.55-6.2 42.92-3.78 45.3-1.35 49.7-1.35L49.7-1.35Q54.35-1.35 57.05-4.23 59.75-7.1 59.75-11.95L59.75-11.95 59.75-25.95ZM93.4-25.95L95.05-25.95 95.05 0 93.45 0 93.45-7.1Q92-3.7 89.02-1.78 86.05 0.15 82.25 0.15L82.25 0.15Q78.7 0.15 75.8-1.53 72.9-3.2 71.22-6.2 69.55-9.2 69.55-13L69.55-13Q69.55-16.8 71.22-19.8 72.9-22.8 75.8-24.48 78.7-26.15 82.25-26.15L82.25-26.15Q86-26.15 88.97-24.25 91.95-22.35 93.4-19L93.4-19 93.4-25.95ZM82.3-1.35Q85.45-1.35 87.97-2.83 90.5-4.3 91.95-6.95 93.4-9.6 93.4-13L93.4-13Q93.4-16.4 91.95-19.03 90.5-21.65 87.97-23.13 85.45-24.6 82.3-24.6L82.3-24.6Q79.15-24.6 76.62-23.13 74.1-21.65 72.65-19.03 71.2-16.4 71.2-13L71.2-13Q71.2-9.6 72.65-6.95 74.1-4.3 76.62-2.83 79.15-1.35 82.3-1.35L82.3-1.35ZM112.54 0.15Q109.44 0.15 107.79-1.63 106.14-3.4 106.14-6.45L106.14-6.45 106.14-37.1 107.79-37.1 107.79-6.75Q107.79-1.3 112.64-1.3L112.64-1.3Q114.04-1.3 115.14-1.75L115.14-1.75 115.29-0.35Q113.94 0.15 112.54 0.15L112.54 0.15ZM121.49 0L121.49-35 134.99-35Q140.44-35 144.67-32.75 148.89-30.5 151.22-26.53 153.54-22.55 153.54-17.5L153.54-17.5Q153.54-12.45 151.22-8.47 148.89-4.5 144.67-2.25 140.44 0 134.99 0L134.99 0 121.49 0ZM123.19-1.55L134.89-1.55Q139.99-1.55 143.81-3.6 147.64-5.65 149.74-9.28 151.84-12.9 151.84-17.5L151.84-17.5Q151.84-22.1 149.74-25.73 147.64-29.35 143.81-31.4 139.99-33.45 134.89-33.45L134.89-33.45 123.19-33.45 123.19-1.55Z" opacity="1" transform="matrix(1,0,0,1,0,0)" fill="#ff4057" class="undefined-text-0" data-fill-palette-color="primary" id="text-0"></path></svg></g></svg></g></svg></g></svg></g><g></g></svg></g><defs></defs></svg><rect width="395.52" height="97.60264988406757" fill="none" stroke="none" visibility="hidden"></rect></g></svg></g></svg>